<svg width="24" height="24" viewBox="0 0 24 24" fill="none" xmlns="http://www.w3.org/2000/svg">
<path d="M21 15V16.2C21 17.8802 21 18.7202 20.673 19.362C20.3854 19.9265 19.9265 20.3854 19.362 20.673C18.7202 21 17.8802 21 16.2 21H7.8C6.11984 21 5.27976 21 4.63803 20.673C4.07354 20.3854 3.6146 19.9265 3.32698 19.362C3 18.7202 3 17.8802 3 16.2V15M13.4386 9.26555H16.2467C16.6085 9.26555 16.7895 9.26555 16.8796 9.33955C16.958 9.40385 17.0024 9.50105 16.9999 9.60281C16.997 9.7199 16.8793 9.85819 16.6438 10.1348L11.8971 15.7102C11.7603 15.8708 11.6919 15.9512 11.6105 15.9806C11.5391 16.0065 11.4609 16.0065 11.3895 15.9806C11.3081 15.9512 11.2397 15.8708 11.1029 15.7102L6.35621 10.1348C6.12073 9.85819 6.00299 9.7199 6.0001 9.60281C5.99759 9.50105 6.042 9.40385 6.12037 9.33955C6.21055 9.26555 6.39147 9.26555 6.75331 9.26555H9.49262C9.42868 8.31671 9.18607 7.38753 8.77649 6.52796C8.31194 5.55301 7.64356 4.69067 6.81715 4L7.21725 4C8.76994 4.00081 10.268 4.57712 11.4256 5.61897C12.4873 6.57459 13.1945 7.86052 13.4386 9.26555Z" stroke="currentColor" stroke-width="2" stroke-linecap="round" stroke-linejoin="round"/>
</svg>
