<svg width="24" height="24" viewBox="0 0 24 24" fill="none" xmlns="http://www.w3.org/2000/svg">
<path d="M22.5325 12.2475C22.5325 11.5234 22.4683 10.8359 22.3583 10.1667H12V14.3009H17.9308C17.665 15.6575 16.8858 16.8034 15.7308 17.5825V20.3325H19.2692C21.3408 18.4167 22.5325 15.5934 22.5325 12.2475Z" fill="#4285F4"/>
<path d="M12.0001 23C14.9701 23 17.4543 22.01 19.2693 20.3325L15.731 17.5825C14.741 18.2425 13.4851 18.6458 12.0001 18.6458C9.13095 18.6458 6.70179 16.7117 5.83095 14.0992H2.18262V16.9317C3.98845 20.525 7.70095 23 12.0001 23Z" fill="#34A853"/>
<path d="M5.83083 14.0993C5.60167 13.4393 5.4825 12.7334 5.4825 12.0001C5.4825 11.2668 5.61083 10.5609 5.83083 9.90092V7.06842H2.1825C1.43083 8.55342 1 10.2218 1 12.0001C1 13.7784 1.43083 15.4468 2.1825 16.9318L5.83083 14.0993Z" fill="#FBBC05"/>
<path d="M12.0001 5.35417C13.6226 5.35417 15.071 5.91334 16.2168 7.00417L19.3518 3.86917C17.4543 2.09083 14.9701 1 12.0001 1C7.70095 1 3.98845 3.475 2.18262 7.06834L5.83095 9.90084C6.70179 7.28834 9.13095 5.35417 12.0001 5.35417Z" fill="#EA4335"/>
</svg>
