<svg width="24" height="24" viewBox="0 0 24 24" fill="none" xmlns="http://www.w3.org/2000/svg">
<path d="M12 1C5.92529 1 1 5.82027 1 11.7654C1 16.5226 4.1515 20.557 8.52288 21.9802C9.07275 22.0788 9.2735 21.7463 9.2735 21.4625C9.2735 21.2062 9.26343 20.3573 9.25806 19.4584C6.19922 20.1089 5.55267 18.189 5.55267 18.189C5.05182 16.9458 4.33141 16.6146 4.33141 16.6146C3.33172 15.947 4.40725 15.9602 4.40725 15.9602C5.51168 16.0351 6.09313 17.0693 6.09313 17.0693C7.07471 18.7146 8.66857 18.2389 9.2943 17.9629C9.39429 17.2691 9.67896 16.7933 9.99254 16.5253C7.55071 16.2532 4.982 15.3294 4.982 11.2043C4.982 10.0281 5.41102 9.06882 6.11328 8.31516C6.00115 8.04182 5.62249 6.94647 6.22203 5.4648C6.22203 5.4648 7.14453 5.17569 9.24729 6.56868C10.1241 6.32885 11.0647 6.21058 12 6.20662C12.9345 6.21058 13.8758 6.33015 14.754 6.56998C16.8528 5.17569 17.7766 5.4661 17.7766 5.4661C18.3782 6.9491 17.9995 8.04312 17.8867 8.31516C18.5917 9.06882 19.0173 10.0281 19.0173 11.2043C19.0173 15.3399 16.4446 16.2506 13.994 16.5174C14.3902 16.8512 14.7406 17.5056 14.7406 18.5096C14.7406 19.9486 14.7258 21.109 14.7258 21.4638C14.7258 21.7503 14.9259 22.0854 15.4832 21.9802C19.8512 20.5544 23 16.52 23 11.7654C23 5.82027 18.0747 1 12 1Z" fill="black"/>
</svg>
