<svg width="20" height="20" viewBox="0 0 20 20" fill="none" xmlns="http://www.w3.org/2000/svg">
<path d="M5.83333 7.08333H10M5.83333 10H12.5M8.06979 15H13.5C14.9001 15 15.6002 15 16.135 14.7275C16.6054 14.4878 16.9878 14.1054 17.2275 13.635C17.5 13.1002 17.5 12.4001 17.5 11V6.5C17.5 5.09987 17.5 4.3998 17.2275 3.86502C16.9878 3.39462 16.6054 3.01217 16.135 2.77248C15.6002 2.5 14.9001 2.5 13.5 2.5H6.5C5.09987 2.5 4.3998 2.5 3.86502 2.77248C3.39462 3.01217 3.01217 3.39462 2.77248 3.86502C2.5 4.3998 2.5 5.09987 2.5 6.5V16.9463C2.5 17.3903 2.5 17.6123 2.59102 17.7263C2.67019 17.8255 2.79022 17.8832 2.91712 17.8831C3.06302 17.8829 3.23639 17.7442 3.58313 17.4668L5.57101 15.8765C5.9771 15.5517 6.18014 15.3892 6.40624 15.2737C6.60683 15.1712 6.82036 15.0963 7.04101 15.051C7.28972 15 7.54975 15 8.06979 15Z" stroke="currentColor" stroke-width="1.5" stroke-linecap="round" stroke-linejoin="round"/>
</svg>
