<svg width="24" height="24" viewBox="0 0 24 24" fill="none" xmlns="http://www.w3.org/2000/svg">
<g clip-path="url(#clip0_879_2671)">
<path d="M13.0068 23.0771C11.5347 23.054 10.1438 22.4693 9.01888 21.2859C8.97311 21.2377 8.93487 21.2257 8.86765 21.2375C6.99145 21.5623 5.32838 21.1178 3.92156 19.8468C2.89325 18.9176 2.3047 17.7493 2.13468 16.3802C2.03916 15.6115 2.12185 14.8591 2.34847 14.1205C2.37235 14.0428 2.3666 13.9912 2.31067 13.9275C1.57619 13.0903 1.11941 12.1224 0.975701 11.0255C0.762566 9.39982 1.19569 7.94415 2.24611 6.67684C3.05443 5.70145 4.09954 5.09101 5.34297 4.81043C5.40731 4.79582 5.43318 4.76617 5.45374 4.70949C6.01222 3.16595 7.04319 2.04733 8.56564 1.38544C9.54907 0.957914 10.5798 0.835391 11.6446 0.983204C12.6601 1.12426 13.5675 1.51123 14.3629 2.14652C14.5825 2.3218 14.7795 2.52477 14.9836 2.71859C15.0269 2.75979 15.0612 2.77527 15.1257 2.76415C17.0057 2.43713 18.6721 2.88188 20.0811 4.1566C21.1059 5.08381 21.6933 6.24909 21.8636 7.61408C21.9604 8.38998 21.8786 9.14954 21.6447 9.89428C21.6241 9.95946 21.6296 10.0048 21.6774 10.0595C22.459 10.9501 22.9239 11.9811 23.0451 13.1527C23.1877 14.5325 22.8488 15.7976 22.0508 16.9378C21.3349 17.9608 20.3707 18.6636 19.1724 19.0513C19.0084 19.1042 18.8412 19.1496 18.6725 19.1853C18.5954 19.2017 18.5651 19.237 18.5401 19.3057C18.0068 20.7731 17.0351 21.8575 15.6101 22.5373C14.8427 22.9036 14.0269 23.0734 13.0068 23.0771ZM13.5115 3.33339C13.4655 3.29589 13.4321 3.26755 13.3974 3.24117C12.0426 2.2019 10.1511 2.07305 8.68238 2.95862C7.34011 3.76789 6.63748 4.96783 6.62156 6.52488C6.60431 8.20293 6.61868 9.88141 6.61537 11.5597C6.61537 11.6635 6.64477 11.7241 6.73763 11.7753C7.11615 11.9846 7.49068 12.2013 7.86654 12.4149C8.08498 12.539 8.30364 12.6626 8.54198 12.7976V12.6397C8.54198 10.6344 8.54287 8.62914 8.5411 6.62408C8.54088 6.3254 8.65938 6.09692 8.92204 5.94715C9.86125 5.41105 10.8013 4.8767 11.741 4.3417C12.3271 4.00814 12.913 3.67414 13.5115 3.33339ZM15.4569 11.2028C15.4569 11.2763 15.4569 11.3227 15.4569 11.3694C15.4569 13.3707 15.4558 15.3721 15.458 17.3734C15.4582 17.6769 15.3366 17.9058 15.0702 18.0578C13.7965 18.7835 12.5223 19.5087 11.2484 20.2342C10.9981 20.3768 10.7476 20.5194 10.4947 20.6633C10.5077 20.6783 10.5137 20.6877 10.5219 20.6944C10.55 20.7178 10.578 20.7415 10.6077 20.7631C11.7176 21.5767 12.9473 21.8235 14.2822 21.4769C16.0824 21.0095 17.3742 19.3611 17.38 17.5452C17.3855 15.8345 17.3804 14.1237 17.3831 12.413C17.3831 12.3236 17.3499 12.2769 17.2743 12.2344C16.8936 12.0216 16.516 11.8034 16.1368 11.5876C15.9179 11.4629 15.6981 11.3395 15.4569 11.2028ZM3.63723 15.0442C3.62971 15.0762 3.62485 15.0928 3.6222 15.11C3.50568 15.8626 3.595 16.5908 3.87933 17.2984C4.59634 19.0833 6.55169 20.1647 8.46924 19.8376C9.04652 19.7393 9.57117 19.5185 10.075 19.2287C11.4887 18.4155 12.9084 17.6122 14.3274 16.8077C14.4045 16.7639 14.4339 16.7157 14.4335 16.6274C14.4297 15.9699 14.4315 15.3126 14.431 14.655C14.431 14.6284 14.4262 14.6018 14.4226 14.5661C14.3857 14.5842 14.3594 14.5955 14.3346 14.6095C13.5352 15.0647 12.7357 15.5199 11.9362 15.9753C10.9552 16.5341 9.97401 17.0926 8.99301 17.6512C8.735 17.7981 8.47742 17.7992 8.2183 17.6516C7.10686 17.0185 5.99476 16.3861 4.8831 15.7534C4.4723 15.5197 4.06195 15.286 3.63723 15.0442ZM9.56764 9.43776C9.61296 9.41574 9.64237 9.40331 9.66978 9.38761C10.4724 8.93066 11.2747 8.47327 12.0773 8.01609C13.0552 7.45929 14.0329 6.90248 15.0112 6.34633C15.2655 6.20179 15.5208 6.20113 15.776 6.34633C17.273 7.19876 18.7702 8.05119 20.2675 8.90341C20.2969 8.92019 20.3283 8.93371 20.3617 8.95028C20.499 8.30496 20.4183 7.46823 20.1583 6.79696C19.237 4.41691 16.422 3.39857 14.1682 4.63689C13.4067 5.05525 12.6572 5.49433 11.9022 5.92404C11.1569 6.34851 10.4111 6.77233 9.66779 7.19985C9.62446 7.22492 9.57184 7.28226 9.5714 7.32499C9.56543 8.0222 9.56764 8.71984 9.56764 9.43776ZM10.97 15.354C10.1785 14.9027 9.40491 14.4617 8.6313 14.0208C7.60587 13.4366 6.58132 12.8503 5.55412 12.2693C5.26913 12.108 5.14399 11.8723 5.14443 11.5529C5.14708 9.88207 5.14576 8.21121 5.14576 6.54058C5.14576 6.49022 5.14576 6.43986 5.14576 6.3762C5.08584 6.39865 5.03477 6.41653 4.98458 6.43702C3.27088 7.13772 2.21692 8.87485 2.42519 10.697C2.5835 12.0818 3.28083 13.1407 4.4964 13.8551C5.25785 14.3025 6.02969 14.7326 6.79711 15.17C7.50726 15.5746 8.21852 15.9777 8.92735 16.3847C9.00893 16.4316 9.0715 16.4397 9.15795 16.3885C9.46969 16.2031 9.78718 16.0272 10.1025 15.8478C10.3855 15.6867 10.6682 15.5256 10.97 15.354ZM13.0289 8.64637C13.6802 9.01764 14.3139 9.37867 14.9475 9.7397C16.1131 10.404 17.2776 11.0698 18.445 11.731C18.73 11.8924 18.8554 12.128 18.8547 12.4474C18.852 14.1183 18.8534 15.7891 18.8534 17.4598V17.6244C18.9133 17.6017 18.9644 17.584 19.0145 17.5635C20.7287 16.8626 21.7822 15.1262 21.5739 13.3033C21.4156 11.9187 20.7181 10.8596 19.5027 10.1454C18.7413 9.69806 17.9694 9.26792 17.202 8.83059C16.4919 8.42596 15.7808 8.02285 15.072 7.61604C14.9904 7.56916 14.9278 7.56088 14.8414 7.61211C14.5297 7.79764 14.2122 7.97336 13.8969 8.153C13.6139 8.31412 13.3307 8.47479 13.0289 8.64637ZM14.4315 12.0112C14.4315 11.5826 14.4293 11.154 14.4335 10.7253C14.4341 10.6469 14.4123 10.6026 14.3417 10.5629C13.5816 10.1345 12.8241 9.70177 12.064 9.27359C12.032 9.2555 11.9718 9.2531 11.9404 9.27076C11.1739 9.70264 10.4098 10.1387 9.64392 10.5716C9.58466 10.605 9.56587 10.6425 9.56609 10.7086C9.56852 11.5695 9.56852 12.4304 9.56609 13.2911C9.56609 13.3572 9.58444 13.3947 9.64369 13.4283C10.4096 13.861 11.1737 14.2973 11.94 14.7296C11.9698 14.7464 12.0255 14.749 12.0545 14.7326C12.8239 14.2986 13.5909 13.8604 14.3599 13.4254C14.4158 13.3938 14.4333 13.3583 14.433 13.297C14.4306 12.8684 14.4315 12.4398 14.4315 12.0112Z" fill="black"/>
</g>
<defs>
<clipPath id="clip0_879_2671">
<rect width="24" height="24" fill="white"/>
</clipPath>
</defs>
</svg>
