<svg width="16" height="19" viewBox="0 0 16 19" fill="none" xmlns="http://www.w3.org/2000/svg">
<path d="M5.50001 9.58333L7.16668 11.25L10.9167 7.49999M14.6667 9.99999C14.6667 14.0904 10.205 17.0653 8.58167 18.0124C8.39718 18.12 8.30493 18.1738 8.17474 18.2018C8.07371 18.2234 7.92631 18.2234 7.82528 18.2018C7.69509 18.1738 7.60284 18.12 7.41835 18.0124C5.79498 17.0653 1.33334 14.0904 1.33334 9.99999V6.01466C1.33334 5.3484 1.33334 5.01527 1.44231 4.72891C1.53857 4.47594 1.695 4.25023 1.89806 4.07127C2.12792 3.86869 2.43984 3.75172 3.06368 3.51778L7.53185 1.84222C7.70509 1.77725 7.79171 1.74477 7.88083 1.73189C7.95987 1.72047 8.04015 1.72047 8.11919 1.73189C8.2083 1.74477 8.29493 1.77725 8.46817 1.84222L12.9363 3.51778C13.5602 3.75172 13.8721 3.86869 14.102 4.07127C14.305 4.25023 14.4614 4.47594 14.5577 4.72891C14.6667 5.01527 14.6667 5.3484 14.6667 6.01466V9.99999Z" stroke="currentColor" stroke-width="1.5" stroke-linecap="round" stroke-linejoin="round"/>
</svg>
