<svg width="16" height="16" viewBox="0 0 16 16" fill="none" xmlns="http://www.w3.org/2000/svg">
<path d="M14 3.3335C14 4.43807 11.3137 5.3335 8 5.3335C4.68629 5.3335 2 4.43807 2 3.3335M14 3.3335C14 2.22893 11.3137 1.3335 8 1.3335C4.68629 1.3335 2 2.22893 2 3.3335M14 3.3335V7.00016M2 3.3335V12.6668C2 13.7735 4.66667 14.6668 8 14.6668M8 10.0002C4.66667 10.0002 2 9.10683 2 8.00016M10 13.2668C10 14.04 10.597 14.6668 11.3333 14.6668H12.5714C13.3604 14.6668 14 13.9953 14 13.1668C14 12.3384 13.3604 11.6668 12.5714 11.6668H11.4286C10.6396 11.6668 10 10.9953 10 10.1668C10 9.3384 10.6396 8.66683 11.4286 8.66683H12.6667C13.403 8.66683 14 9.29363 14 10.0668" stroke="currentColor" stroke-linecap="round" stroke-linejoin="round"/>
</svg>
