<svg width="20" height="19" viewBox="0 0 20 19" fill="none" xmlns="http://www.w3.org/2000/svg">
<path d="M5.00008 4.99996L8.75008 8.74996M5.00008 4.99996H2.50008L1.66675 2.49996L2.50008 1.66663L5.00008 2.49996V4.99996ZM16.0492 2.28414L13.8596 4.47382C13.5295 4.80383 13.3645 4.96884 13.3027 5.15911C13.2483 5.32648 13.2483 5.50677 13.3027 5.67414C13.3645 5.86441 13.5295 6.02942 13.8596 6.35943L14.0573 6.55715C14.3873 6.88716 14.5523 7.05217 14.7426 7.11399C14.9099 7.16838 15.0902 7.16838 15.2576 7.11399C15.4479 7.05217 15.6129 6.88716 15.9429 6.55715L17.9912 4.50889C18.2118 5.0457 18.3334 5.63362 18.3334 6.24996C18.3334 8.78126 16.2814 10.8333 13.7501 10.8333C13.4449 10.8333 13.1467 10.8035 12.8582 10.7466C12.4531 10.6667 12.2505 10.6267 12.1277 10.639C11.9972 10.652 11.9328 10.6715 11.8172 10.7334C11.7084 10.7917 11.5992 10.9008 11.3809 11.1191L5.41675 17.0833C4.72639 17.7736 3.6071 17.7736 2.91675 17.0833C2.22639 16.3929 2.22639 15.2736 2.91675 14.5833L8.88094 8.6191C9.09923 8.40081 9.20837 8.29167 9.2666 8.18287C9.3285 8.06719 9.34807 8.00285 9.36108 7.8723C9.37332 7.7495 9.33337 7.54694 9.25347 7.14183C9.19657 6.85334 9.16675 6.55513 9.16675 6.24996C9.16675 3.71865 11.2188 1.66663 13.7501 1.66663C14.588 1.66663 15.3734 1.89148 16.0492 2.28414ZM10.0001 12.4999L14.5834 17.0832C15.2738 17.7736 16.3931 17.7736 17.0834 17.0832C17.7738 16.3928 17.7738 15.2736 17.0834 14.5832L13.3128 10.8127C13.0459 10.7874 12.7857 10.7393 12.5341 10.6702C12.2099 10.5812 11.8542 10.6458 11.6165 10.8836L10.0001 12.4999Z" stroke="#666666" stroke-width="1.5" stroke-linecap="round" stroke-linejoin="round"/>
</svg>
