<svg xmlns="http://www.w3.org/2000/svg" viewBox="0 0 598.84 222"><defs><style>.cls-2{fill:#fff}.cls-3{fill:#172d72}</style></defs><g id="图层_2" data-name="图层 2"><g id="Layer_2" data-name="Layer 2"><path style="fill:#e30c34" d="M0 55.5v111L96.13 222l96.13-55.5v-111L96.13 0 0 55.5z"/><path class="cls-2" d="M96.07 37.05 32.23 73.92v36.85l31.93-18.44v74.21l31.92 18.4V73.91l31.91-18.43-31.92-18.43zM128.17 92.52v73.98l32.05-18.5V74l-32.05 18.52z"/><path class="cls-3" d="M254.78 114h-12V65.56H225v-10h46.83v10h-17.05ZM291.11 65.56h-11.23v-10h11.23Zm0 48.44h-11.23V70.7h11.23ZM303.13 55.54H326c9 0 14.51 2 18.44 6.74 4.65 5.53 7.14 13.47 7.14 22.45s-2.49 17-7.14 22.45c-3.94 4.73-9.55 6.82-18.44 6.82h-22.87ZM326 104c9.06 0 13.55-6.34 13.55-19.17s-4.5-19.27-13.55-19.27h-10.84V104ZM387.49 114h-26.3V55.54h26.06c15.4 0 19.09 10 19.09 15.4 0 5-2.25 8.34-8 12 6.57 3.85 9.7 8.42 9.7 14.19-.04 7.01-4.11 16.87-20.55 16.87Zm-14.27-35.2h13.07c5.53 0 8.5-2.33 8.5-6.58s-3-6.66-8.5-6.66h-13.07Zm0 25.18h14.35c5.86 0 8.9-2.65 8.9-7.54s-3-7.62-8.9-7.62h-14.35ZM231 159.57h15.7v5H225v-29h21v5h-15v6.56h13.87v5H231ZM256.44 143.07v3.1a7.06 7.06 0 0 1 6.44-3.45c4.57 0 7.2 2.7 7.2 7.43v14.39h-5.57V151.3c0-2.54-1.19-3.85-3.58-3.85-2.7 0-4.49 1.67-4.49 4.21v12.88h-5.57v-21.47ZM284.9 147.21h-3.1v11.68c0 1.91.36 2.35 1.83 2.35a8.22 8.22 0 0 0 1.27-.12V165a10.38 10.38 0 0 1-3.22.43c-3.65 0-5.44-1.67-5.44-5v-13.2h-2.74v-3.7h2.74v-5.76h5.56v5.76h3.1ZM307.68 154.6a9.49 9.49 0 0 1 0 1h-14.43c.12 2.9.72 5.64 4.45 5.64a4.32 4.32 0 0 0 4.26-2.7h5.48c-1.23 4.21-5.12 6.95-9.93 6.95-6.09 0-9.82-4.21-9.82-11.09 0-7.19 3.77-11.64 9.94-11.64 4.29-.04 10.05 2.34 10.05 11.84Zm-10.13-7.6c-2.47 0-3.86 1.63-4.22 4.89h8.55c-.24-3.17-1.75-4.89-4.33-4.89ZM317.42 143.07v4.22c1.2-2.9 3.42-4.57 6-4.57a4.86 4.86 0 0 1 .67 0v5.64a9.7 9.7 0 0 0-1.75-.16q-4.89 0-4.89 4.89v11.41h-5.56v-21.43ZM348 154.12c0 6.52-3.81 11.37-9 11.37a6.32 6.32 0 0 1-6-3.49v11.21h-5.57v-30.14H333v3.18a6.36 6.36 0 0 1 6-3.53c5.53 0 9 5.08 9 11.4Zm-14.94 0c0 4 1.9 6.72 4.69 6.72s4.69-2.74 4.69-6.64c0-4.09-1.87-6.83-4.69-6.83s-4.75 2.74-4.75 6.75ZM357.69 143.07v4.22c1.19-2.9 3.42-4.57 6-4.57a4.91 4.91 0 0 1 .68 0v5.64a9.78 9.78 0 0 0-1.75-.16q-4.89 0-4.89 4.89v11.41h-5.56v-21.43ZM373.47 140.53h-5.56v-5h5.56Zm0 24h-5.56v-21.46h5.56ZM387.27 161.08c2.58 0 4.13-.79 4.13-2.11 0-.87-.47-1.31-1.87-1.74l-6.63-2.07c-1.24-.4-4.69-1.07-4.69-5.29 0-4.41 3.37-7.15 8.82-7.15 5.76 0 9.26 2.74 9.34 7.27H391c0-2-1.36-2.9-4-2.9-1.95 0-3.22.79-3.22 2 0 .87.4 1.19 2 1.67l7 2c2.82.84 4.21 2.63 4.21 5.41 0 3-1.87 7.27-9.38 7.27-6.52 0-10-2.46-10.14-7.15h5.45c.29 1.48.85 2.79 4.35 2.79ZM420 154.6a9.49 9.49 0 0 1 0 1h-14.48c.12 2.9.71 5.64 4.45 5.64a4.29 4.29 0 0 0 4.25-2.7h5.49c-1.23 4.21-5.13 6.95-9.94 6.95-6.08 0-9.82-4.21-9.82-11.09 0-7.19 3.78-11.64 9.94-11.64 4.29-.04 10.11 2.34 10.11 11.84Zm-10.19-7.6c-2.47 0-3.86 1.63-4.21 4.89h8.54c-.24-3.17-1.75-4.89-4.33-4.89ZM441.73 164.54h-6v-29h8.9l5.25 23.06 5.12-23.04h9v29h-6V142l-5.13 22.58h-6L441.73 142ZM468.76 159c0-3.85 2.07-6 6.32-6.75l2.23-.4c1.83-.28 4.45-.4 4.45-2.51 0-1.43-1.07-2.14-3.22-2.14-2.74 0-3.65.71-3.93 2.94h-5.37c.36-5 3.38-7.43 9.18-7.43s8.79 2.22 8.79 6.59v11.93a3.06 3.06 0 0 0 1.27 2.62v.68h-6a2.73 2.73 0 0 1-.64-2.15 8.9 8.9 0 0 1-6.52 3.06 6.14 6.14 0 0 1-6.56-6.44Zm13-4.61a6.88 6.88 0 0 1-2.34.68l-1.91.36c-2.31.47-3.18 1.27-3.18 2.94s1.15 2.58 3 2.58c2.82 0 4.41-1.83 4.41-5.05ZM497.82 143.07v3.1a7.06 7.06 0 0 1 6.44-3.45c4.58 0 7.2 2.7 7.2 7.43v14.39h-5.57V151.3c0-2.54-1.19-3.85-3.57-3.85-2.71 0-4.5 1.67-4.5 4.21v12.88h-5.56v-21.47ZM515.63 159c0-3.85 2.07-6 6.32-6.75l2.23-.4c1.83-.28 4.45-.4 4.45-2.51 0-1.43-1.07-2.14-3.22-2.14-2.74 0-3.65.71-3.93 2.94h-5.37c.36-5 3.38-7.43 9.18-7.43s8.79 2.22 8.79 6.59v11.93a3.06 3.06 0 0 0 1.27 2.62v.68h-6a2.73 2.73 0 0 1-.64-2.15 8.9 8.9 0 0 1-6.52 3.06 6.14 6.14 0 0 1-6.56-6.44Zm13-4.61a6.88 6.88 0 0 1-2.34.68l-1.91.36c-2.31.47-3.18 1.27-3.18 2.94s1.15 2.58 3 2.58c2.82 0 4.41-1.83 4.41-5.05ZM558.29 143.07v22.19c0 5-3.74 8-10.22 8-5.68 0-9.42-2.35-9.5-6.09h5.76c.44 1.63 1.83 2.51 3.94 2.51 2.78 0 4.73-1.79 4.73-4.37v-2.91c-2.07 2.35-3.58 3.1-6.08 3.1-5.29 0-8.79-4.45-8.79-11.13s3.82-11.6 8.91-11.6c2.46 0 4.29 1.11 6 3.65v-3.3Zm-14.59 11.17c0 3.9 1.83 6.56 4.45 6.56 2.9 0 4.93-2.66 4.93-6.56s-2.07-6.87-4.85-6.87-4.53 2.82-4.53 6.87ZM582.46 154.6a9.49 9.49 0 0 1 0 1H568c.12 2.9.71 5.64 4.45 5.64a4.29 4.29 0 0 0 4.25-2.7h5.49c-1.23 4.21-5.13 6.95-9.94 6.95-6.08 0-9.82-4.21-9.82-11.09 0-7.19 3.78-11.64 9.94-11.64 4.32-.04 10.09 2.34 10.09 11.84Zm-10.14-7.6c-2.46 0-3.85 1.63-4.21 4.89h8.54c-.23-3.17-1.74-4.89-4.33-4.89ZM592.2 143.07v4.22c1.19-2.9 3.42-4.57 6-4.57a4.91 4.91 0 0 1 .68 0v5.64a9.86 9.86 0 0 0-1.75-.16q-4.89 0-4.89 4.89v11.41h-5.57v-21.43Z"/></g></g></svg>