<svg xmlns="http://www.w3.org/2000/svg" viewBox="0 0 98.642 38.5"><g data-name="组 8215"><g data-name="组 284" fill="#fff"><path data-name="路径 27" d="M48.204 28.199h-3.825v-15.4h-5.635V9.612h14.891v3.187h-5.431Z"/><path data-name="路径 28" d="M59.756 12.797h-3.57V9.61h3.57Zm0 15.4h-3.57v-13.77h3.57Z"/><path data-name="路径 29" d="M67.406 25.012h10.072v3.187h-13.9V9.61h13.438v3.187h-9.613v4.207h8.9v3.188h-8.9Z"/><path data-name="路径 30" d="M84.363 28.199h-3.825V9.61h5.711l3.366 14.79 3.264-14.79h5.763v18.589h-3.825V13.716l-3.29 14.483h-3.825l-3.34-14.483Z"/></g><g data-name="组 285"><path data-name="路径 40" d="M0 9.625v19.25L16.671 38.5l16.671-9.625V9.625L16.671 0Z" fill="#e30c34"/><path data-name="路径 41" d="M16.661 6.426 5.584 12.819v6.391l5.538-3.2v12.87l5.535 3.191V12.817l5.534-3.2Z" fill="#fff"/><path data-name="路径 42" d="M22.227 16.046v12.83l5.558-3.209V12.834Z" fill="#fff"/></g></g></svg>