<svg xmlns="http://www.w3.org/2000/svg" viewBox="0 0 505.42 193.14"><defs><style>.cls-1{fill:#e30c34;}.cls-2{fill:#fff;}.cls-3{fill:#172d72;}</style></defs><g><g><polygon class="cls-1" points="0 48.28 0 144.85 83.63 193.14 167.26 144.85 167.26 48.28 83.63 0 0 48.28"/><polygon class="cls-2" points="83.58 32.24 28.04 64.31 28.04 96.37 55.82 80.33 55.82 144.89 83.58 160.9 83.58 160.9 83.58 64.3 111.35 48.27 83.58 32.24"/><polygon class="cls-2" points="111.51 80.49 111.51 144.85 139.39 128.76 139.39 64.38 111.51 80.49"/><path class="cls-3" d="M244.34,144.67h-19.8V65H195.37V48.45h77.08V65H244.34Z"/><path class="cls-3" d="M304.13,65H285.65V48.45h18.48Zm0,79.72H285.65V73.4h18.48Z"/><path class="cls-3" d="M343.73,128.17h52.14v16.5H323.93V48.45h69.56V65H343.73V86.73h46.06v16.5H343.73Z"/><path class="cls-3" d="M431.5,144.67H411.71V48.45h29.56L458.69,125l16.9-76.55h29.83v96.22h-19.8v-75l-17,75h-19.8l-17.29-75Z"/></g></g></svg>